<svg xmlns="http://www.w3.org/2000/svg" xmlns:xlink="http://www.w3.org/1999/xlink" width="500" zoomAndPan="magnify" viewBox="0 0 375 374.999991" height="500" preserveAspectRatio="xMidYMid meet" version="1.2"><defs><clipPath id="08041d5ab4"><path d="M 96 86 L 278 86 L 278 232.757812 L 96 232.757812 Z M 96 86 "/></clipPath></defs><g id="43b9f343dc"><g clip-rule="nonzero" clip-path="url(#08041d5ab4)"><path style=" stroke:none;fill-rule:nonzero;fill:#f35526;fill-opacity:1;" d="M 110.308594 193.957031 C 116.433594 195.445312 122.109375 194.132812 126.46875 190.980469 C 128.511719 189.496094 131.3125 190.804688 131.3125 193.300781 L 131.3125 231.753906 L 131.414062 231.753906 L 131.414062 231.65625 L 132.066406 232.3125 L 170.875 232.3125 C 171.152344 232.3125 171.328125 232.210938 171.53125 232.03125 C 173.121094 231.300781 173.675781 229.160156 172.464844 227.570312 C 169.386719 223.308594 168 217.535156 169.589844 211.507812 C 171.179688 205.65625 175.714844 200.816406 181.464844 198.875 C 194.277344 194.789062 206.078125 204.347656 206.078125 216.601562 C 206.078125 220.6875 204.765625 224.492188 202.546875 227.644531 C 201.4375 229.234375 201.890625 231.351562 203.480469 232.007812 L 204.3125 232.285156 L 243.117188 232.285156 L 243.21875 231.90625 L 243.320312 231.90625 L 243.320312 193.476562 C 243.320312 190.980469 246.09375 189.570312 248.160156 191.058594 C 251.3125 193.378906 255.121094 194.765625 259.207031 194.765625 C 271.460938 194.765625 280.941406 182.886719 276.855469 170.054688 C 274.992188 164.304688 270.074219 159.664062 264.324219 158.175781 C 258.296875 156.585938 252.523438 157.898438 248.160156 161.050781 C 246.117188 162.539062 243.320312 161.328125 243.320312 158.730469 L 243.320312 120.503906 L 204.5625 120.503906 C 204.285156 120.503906 204.109375 120.503906 204.007812 120.402344 C 201.789062 120.023438 200.855469 117.527344 202.242188 115.664062 C 204.460938 112.585938 205.773438 108.703125 205.773438 104.617188 C 205.773438 92.464844 193.972656 82.882812 181.164062 86.96875 C 175.414062 88.832031 170.851562 93.648438 169.285156 99.601562 C 167.699219 105.550781 169.109375 111.300781 172.160156 115.5625 C 173.472656 117.425781 172.613281 119.546875 170.574219 120.101562 L 131.285156 120.101562 L 131.285156 158.554688 C 131.285156 161.050781 128.511719 162.464844 126.445312 160.976562 C 123.292969 158.65625 119.5625 157.34375 115.402344 157.34375 C 103.144531 157.34375 93.664062 169.144531 97.75 181.953125 C 99.617188 187.730469 104.53125 192.367188 110.308594 193.957031 Z M 110.308594 193.957031 "/></g></g></svg>