<svg xmlns="http://www.w3.org/2000/svg" xmlns:xlink="http://www.w3.org/1999/xlink" width="500" zoomAndPan="magnify" viewBox="0 0 375 374.999991" height="500" preserveAspectRatio="xMidYMid meet" version="1.2"><defs><clipPath id="4a75ef1ed0"><path d="M 120.050781 106.28125 L 255 106.28125 L 255 241.28125 L 120.050781 241.28125 Z M 120.050781 106.28125 "/></clipPath></defs><g id="6dae7a4f90"><g clip-rule="nonzero" clip-path="url(#4a75ef1ed0)"><path style=" stroke:none;fill-rule:nonzero;fill:#f35526;fill-opacity:1;" d="M 139.621094 126.15625 C 152.871094 112.90625 168.828125 106.28125 187.496094 106.28125 C 206.164062 106.28125 222.074219 112.855469 235.222656 126.003906 C 248.371094 139.152344 254.945312 155.0625 254.945312 173.730469 C 254.945312 192.398438 248.371094 208.308594 235.222656 221.457031 C 222.074219 234.605469 206.164062 241.175781 187.496094 241.175781 C 168.828125 241.175781 152.921875 234.605469 139.773438 221.457031 C 126.625 208.308594 120.050781 192.398438 120.050781 173.730469 C 120.050781 155.0625 126.574219 139.203125 139.621094 126.15625 Z M 193.519531 204.742188 C 193.71875 202.132812 192.96875 199.925781 191.261719 198.121094 C 189.554688 196.3125 187.398438 195.410156 184.789062 195.410156 C 182.378906 195.410156 180.269531 196.210938 178.464844 197.820312 C 176.65625 199.425781 175.753906 201.53125 175.753906 204.140625 C 175.753906 206.75 176.558594 208.910156 178.164062 210.617188 C 179.769531 212.320312 181.777344 213.175781 184.183594 213.175781 C 186.792969 213.175781 189.003906 212.421875 190.808594 210.917969 C 192.617188 209.410156 193.519531 207.355469 193.519531 204.742188 Z M 208.273438 166.203125 C 210.683594 162.789062 211.886719 159.175781 211.886719 155.363281 C 211.886719 148.738281 209.378906 143.519531 204.359375 139.707031 C 199.542969 136.09375 193.320312 134.285156 185.691406 134.285156 C 180.070312 134.285156 175.351562 135.589844 171.539062 138.199219 C 165.917969 142.015625 163.109375 148.839844 163.109375 158.675781 L 177.863281 158.675781 C 177.863281 154.460938 178.261719 151.75 179.066406 150.546875 C 180.875 147.535156 183.484375 146.027344 186.894531 146.027344 C 190.308594 146.027344 192.816406 147.132812 194.421875 149.339844 C 196.027344 151.550781 196.832031 153.859375 196.832031 156.265625 C 196.832031 157.871094 196.027344 159.878906 194.421875 162.289062 C 194.019531 163.089844 193.019531 164.09375 191.410156 165.300781 C 186.191406 168.308594 182.679688 171.320312 180.875 174.332031 C 179.265625 176.941406 178.261719 181.058594 177.863281 186.679688 C 177.863281 187.480469 178.261719 187.882812 179.066406 187.882812 L 190.808594 187.882812 C 191.8125 187.882812 192.316406 187.480469 192.316406 186.679688 C 192.316406 184.46875 192.515625 182.5625 192.917969 180.957031 C 193.519531 179.148438 194.722656 177.445312 196.53125 175.839844 L 200.746094 173.128906 C 204.558594 170.316406 207.070312 168.007812 208.273438 166.203125 Z M 208.273438 166.203125 "/></g></g></svg>