<svg xmlns="http://www.w3.org/2000/svg" xmlns:xlink="http://www.w3.org/1999/xlink" width="500" zoomAndPan="magnify" viewBox="0 0 375 374.999991" height="500" preserveAspectRatio="xMidYMid meet" version="1.2"><defs><clipPath id="3c9404491e"><path d="M 135 111.648438 L 184 111.648438 L 184 238 L 135 238 Z M 135 111.648438 "/></clipPath><clipPath id="a3890c681e"><path d="M 191 111.648438 L 240 111.648438 L 240 238 L 191 238 Z M 191 111.648438 "/></clipPath><clipPath id="7d12d297d7"><path d="M 260 128 L 269.800781 128 L 269.800781 217 L 260 217 Z M 260 128 "/></clipPath><clipPath id="992fff3e9b"><path d="M 105.550781 128 L 115 128 L 115 217 L 105.550781 217 Z M 105.550781 128 "/></clipPath><clipPath id="aad2395451"><path d="M 198 209 L 269 209 L 269 242.148438 L 198 242.148438 Z M 198 209 "/></clipPath><clipPath id="93de9e9b88"><path d="M 106 209 L 177 209 L 177 242.148438 L 106 242.148438 Z M 106 209 "/></clipPath></defs><g id="4516c6cfac"><g clip-rule="nonzero" clip-path="url(#3c9404491e)"><path style=" stroke:none;fill-rule:nonzero;fill:#f35526;fill-opacity:1;" d="M 135.921875 111.6875 L 135.921875 195.460938 C 147.644531 203.441406 156.855469 210.316406 163.546875 216.09375 C 167 219.070312 170.242188 222.097656 173.28125 225.175781 C 177.621094 229.625 180.859375 233.6875 182.988281 237.363281 L 183.851562 237.363281 L 183.855469 157.574219 C 183.398438 157.535156 182.996094 157.34375 182.640625 157.007812 L 139.488281 113.851562 Z M 135.921875 111.6875 "/></g><g clip-rule="nonzero" clip-path="url(#a3890c681e)"><path style=" stroke:none;fill-rule:nonzero;fill:#f35526;fill-opacity:1;" d="M 239.03125 111.6875 L 235.082031 114.234375 L 192.3125 157.007812 C 191.960938 157.34375 191.554688 157.535156 191.097656 157.574219 L 191.101562 237.363281 L 191.96875 237.363281 C 195.097656 232.21875 199.9375 226.601562 206.484375 220.515625 C 215.414062 212.695312 221.28125 207.863281 224.09375 206.015625 C 228.644531 202.617188 233.625 199.097656 239.03125 195.464844 Z M 239.03125 111.6875 "/></g><path style=" stroke:none;fill-rule:nonzero;fill:#f35526;fill-opacity:1;" d="M 244.007812 117.179688 L 254.484375 117.179688 L 254.484375 205.941406 C 250.992188 205.941406 247.5 205.941406 244.007812 205.941406 C 244.007812 176.355469 244.007812 146.769531 244.007812 117.179688 "/><path style=" stroke:none;fill-rule:nonzero;fill:#f35526;fill-opacity:1;" d="M 130.945312 117.179688 L 120.46875 117.179688 L 120.46875 205.941406 C 123.960938 205.941406 127.453125 205.941406 130.945312 205.941406 C 130.945312 176.355469 130.945312 146.769531 130.945312 117.179688 "/><g clip-rule="nonzero" clip-path="url(#7d12d297d7)"><path style=" stroke:none;fill-rule:nonzero;fill:#f35526;fill-opacity:1;" d="M 260.246094 128.441406 L 269.414062 128.441406 C 269.414062 157.941406 269.414062 187.4375 269.414062 216.9375 C 266.359375 216.9375 263.304688 216.9375 260.246094 216.9375 C 260.246094 187.4375 260.246094 157.9375 260.246094 128.441406 "/></g><g clip-rule="nonzero" clip-path="url(#992fff3e9b)"><path style=" stroke:none;fill-rule:nonzero;fill:#f35526;fill-opacity:1;" d="M 114.707031 128.441406 L 105.542969 128.441406 C 105.542969 157.941406 105.542969 187.4375 105.542969 216.9375 C 108.597656 216.9375 111.652344 216.9375 114.707031 216.9375 C 114.707031 187.4375 114.707031 157.9375 114.707031 128.441406 "/></g><path style=" stroke:none;fill-rule:nonzero;fill:#f35526;fill-opacity:1;" d="M 247.21875 197.453125 L 242.835938 199.753906 C 241.175781 200.574219 237.390625 202.714844 231.480469 206.183594 C 229.253906 207.53125 227.226562 208.828125 225.398438 210.070312 C 222.589844 211.953125 218.878906 214.835938 214.261719 218.71875 C 203.46875 227.566406 196.976562 234.488281 194.777344 239.492188 C 214.855469 225.332031 228.414062 216.347656 235.453125 212.546875 C 241.976562 208.957031 248 206.808594 253.519531 206.101562 L 247.21875 197.453125 "/><path style=" stroke:none;fill-rule:nonzero;fill:#f35526;fill-opacity:1;" d="M 127.738281 197.453125 L 132.121094 199.753906 C 133.777344 200.574219 137.566406 202.714844 143.476562 206.183594 C 145.703125 207.53125 147.730469 208.828125 149.558594 210.070312 C 152.363281 211.953125 156.078125 214.835938 160.691406 218.71875 C 171.484375 227.566406 177.980469 234.488281 180.179688 239.492188 C 160.101562 225.332031 146.542969 216.347656 139.5 212.546875 C 132.980469 208.957031 126.957031 206.808594 121.433594 206.101562 L 127.738281 197.453125 "/><g clip-rule="nonzero" clip-path="url(#aad2395451)"><path style=" stroke:none;fill-rule:nonzero;fill:#f35526;fill-opacity:1;" d="M 266.492188 209.449219 L 256.101562 212.722656 C 242.730469 217.148438 231.273438 221.789062 221.742188 226.648438 L 214.949219 230.332031 L 208.878906 234.101562 L 203.527344 237.949219 L 198.894531 241.878906 C 198.933594 242.035156 199.105469 242.066406 199.410156 241.972656 C 224.550781 230.242188 238.617188 223.988281 241.613281 223.210938 C 248.125 220.601562 257.0625 218.296875 268.425781 216.296875 L 266.492188 209.449219 "/></g><g clip-rule="nonzero" clip-path="url(#93de9e9b88)"><path style=" stroke:none;fill-rule:nonzero;fill:#f35526;fill-opacity:1;" d="M 108.464844 209.449219 L 118.851562 212.722656 C 132.226562 217.148438 143.679688 221.789062 153.214844 226.648438 L 160.007812 230.332031 L 166.078125 234.101562 L 171.429688 237.949219 L 176.0625 241.878906 C 176.019531 242.035156 175.847656 242.066406 175.542969 241.972656 C 150.40625 230.242188 136.335938 223.988281 133.339844 223.210938 C 126.832031 220.601562 117.894531 218.296875 106.527344 216.296875 L 108.464844 209.449219 "/></g></g></svg>