<svg xmlns="http://www.w3.org/2000/svg" xmlns:xlink="http://www.w3.org/1999/xlink" width="500" zoomAndPan="magnify" viewBox="0 0 375 374.999991" height="500" preserveAspectRatio="xMidYMid meet" version="1.2"><defs/><g id="b08e7b2779"><g style="fill:#ffffff;fill-opacity:1;"><g transform="translate(20.658695, 215.848551)"><path style="stroke:none" d="M 46.796875 0 L 46.734375 -27.296875 L 33.34375 -4.8125 L 28.59375 -4.8125 L 15.28125 -26.71875 L 15.28125 0 L 5.390625 0 L 5.390625 -45.5 L 14.109375 -45.5 L 31.140625 -17.21875 L 47.90625 -45.5 L 56.546875 -45.5 L 56.6875 0 Z M 46.796875 0 "/></g></g><g style="fill:#ffffff;fill-opacity:1;"><g transform="translate(82.726283, 215.848551)"><path style="stroke:none" d="M 27.4375 0.78125 C 22.707031 0.78125 18.445312 -0.234375 14.65625 -2.265625 C 10.863281 -4.304688 7.894531 -7.113281 5.75 -10.6875 C 3.601562 -14.269531 2.53125 -18.289062 2.53125 -22.75 C 2.53125 -27.207031 3.601562 -31.222656 5.75 -34.796875 C 7.894531 -38.378906 10.863281 -41.1875 14.65625 -43.21875 C 18.445312 -45.257812 22.707031 -46.28125 27.4375 -46.28125 C 32.15625 -46.28125 36.398438 -45.257812 40.171875 -43.21875 C 43.941406 -41.1875 46.910156 -38.378906 49.078125 -34.796875 C 51.242188 -31.222656 52.328125 -27.207031 52.328125 -22.75 C 52.328125 -18.289062 51.242188 -14.269531 49.078125 -10.6875 C 46.910156 -7.113281 43.941406 -4.304688 40.171875 -2.265625 C 36.398438 -0.234375 32.15625 0.78125 27.4375 0.78125 Z M 27.4375 -8.1875 C 30.113281 -8.1875 32.535156 -8.800781 34.703125 -10.03125 C 36.867188 -11.269531 38.570312 -12.992188 39.8125 -15.203125 C 41.050781 -17.421875 41.671875 -19.9375 41.671875 -22.75 C 41.671875 -25.5625 41.050781 -28.070312 39.8125 -30.28125 C 38.570312 -32.5 36.867188 -34.222656 34.703125 -35.453125 C 32.535156 -36.691406 30.113281 -37.3125 27.4375 -37.3125 C 24.75 -37.3125 22.320312 -36.691406 20.15625 -35.453125 C 17.988281 -34.222656 16.285156 -32.5 15.046875 -30.28125 C 13.804688 -28.070312 13.1875 -25.5625 13.1875 -22.75 C 13.1875 -19.9375 13.804688 -17.421875 15.046875 -15.203125 C 16.285156 -12.992188 17.988281 -11.269531 20.15625 -10.03125 C 22.320312 -8.800781 24.75 -8.1875 27.4375 -8.1875 Z M 27.4375 -8.1875 "/></g></g><g style="fill:#ffffff;fill-opacity:1;"><g transform="translate(136.929778, 215.848551)"><path style="stroke:none" d="M 14.8125 -36.921875 L 0.265625 -36.921875 L 0.265625 -45.5 L 39.90625 -45.5 L 39.90625 -36.921875 L 25.34375 -36.921875 L 25.34375 0 L 14.8125 0 Z M 14.8125 -36.921875 "/></g></g><g style="fill:#ffffff;fill-opacity:1;"><g transform="translate(177.09499, 215.848551)"><path style="stroke:none" d="M 5.390625 -45.5 L 15.921875 -45.5 L 15.921875 0 L 5.390625 0 Z M 5.390625 -45.5 "/></g></g><g style="fill:#ffffff;fill-opacity:1;"><g transform="translate(198.412448, 215.848551)"><path style="stroke:none" d="M 40.625 -8.453125 L 40.625 0 L 5.390625 0 L 5.390625 -45.5 L 39.78125 -45.5 L 39.78125 -37.046875 L 15.859375 -37.046875 L 15.859375 -27.171875 L 36.984375 -27.171875 L 36.984375 -18.984375 L 15.859375 -18.984375 L 15.859375 -8.453125 Z M 40.625 -8.453125 "/></g></g><g style="fill:#ffffff;fill-opacity:1;"><g transform="translate(242.022251, 215.848551)"><path style="stroke:none" d="M 47.125 -45.5 L 47.125 0 L 38.484375 0 L 15.796875 -27.625 L 15.796875 0 L 5.390625 0 L 5.390625 -45.5 L 14.109375 -45.5 L 36.71875 -17.875 L 36.71875 -45.5 Z M 47.125 -45.5 "/></g></g><g style="fill:#ffffff;fill-opacity:1;"><g transform="translate(294.535981, 215.848551)"><path style="stroke:none" d="M 20.34375 0.78125 C 16.75 0.78125 13.269531 0.296875 9.90625 -0.671875 C 6.550781 -1.648438 3.851562 -2.921875 1.8125 -4.484375 L 5.390625 -12.421875 C 7.335938 -10.984375 9.65625 -9.832031 12.34375 -8.96875 C 15.03125 -8.101562 17.71875 -7.671875 20.40625 -7.671875 C 23.394531 -7.671875 25.601562 -8.113281 27.03125 -9 C 28.46875 -9.882812 29.1875 -11.066406 29.1875 -12.546875 C 29.1875 -13.628906 28.765625 -14.523438 27.921875 -15.234375 C 27.078125 -15.953125 25.992188 -16.523438 24.671875 -16.953125 C 23.347656 -17.390625 21.5625 -17.867188 19.3125 -18.390625 C 15.84375 -19.210938 13 -20.035156 10.78125 -20.859375 C 8.570312 -21.679688 6.675781 -23.003906 5.09375 -24.828125 C 3.519531 -26.648438 2.734375 -29.078125 2.734375 -32.109375 C 2.734375 -34.753906 3.445312 -37.148438 4.875 -39.296875 C 6.300781 -41.441406 8.457031 -43.140625 11.34375 -44.390625 C 14.226562 -45.648438 17.75 -46.28125 21.90625 -46.28125 C 24.8125 -46.28125 27.648438 -45.929688 30.421875 -45.234375 C 33.191406 -44.546875 35.617188 -43.550781 37.703125 -42.25 L 34.453125 -34.25 C 30.242188 -36.632812 26.039062 -37.828125 21.84375 -37.828125 C 18.894531 -37.828125 16.710938 -37.347656 15.296875 -36.390625 C 13.890625 -35.441406 13.1875 -34.1875 13.1875 -32.625 C 13.1875 -31.070312 14 -29.914062 15.625 -29.15625 C 17.25 -28.394531 19.734375 -27.644531 23.078125 -26.90625 C 26.546875 -26.082031 29.382812 -25.257812 31.59375 -24.4375 C 33.800781 -23.613281 35.695312 -22.3125 37.28125 -20.53125 C 38.863281 -18.757812 39.65625 -16.359375 39.65625 -13.328125 C 39.65625 -10.722656 38.925781 -8.347656 37.46875 -6.203125 C 36.019531 -4.054688 33.84375 -2.351562 30.9375 -1.09375 C 28.03125 0.15625 24.5 0.78125 20.34375 0.78125 Z M 20.34375 0.78125 "/></g></g><g style="fill:#ffffff;fill-opacity:1;"><g transform="translate(337.300924, 215.848551)"><path style="stroke:none" d="M 8.515625 0.515625 C 6.734375 0.515625 5.234375 -0.0859375 4.015625 -1.296875 C 2.804688 -2.515625 2.203125 -4.03125 2.203125 -5.84375 C 2.203125 -7.707031 2.804688 -9.210938 4.015625 -10.359375 C 5.234375 -11.515625 6.734375 -12.09375 8.515625 -12.09375 C 10.296875 -12.09375 11.789062 -11.515625 13 -10.359375 C 14.207031 -9.210938 14.8125 -7.707031 14.8125 -5.84375 C 14.8125 -4.03125 14.207031 -2.515625 13 -1.296875 C 11.789062 -0.0859375 10.296875 0.515625 8.515625 0.515625 Z M 8.515625 0.515625 "/></g></g></g></svg>