<svg xmlns="http://www.w3.org/2000/svg" xmlns:xlink="http://www.w3.org/1999/xlink" width="500" zoomAndPan="magnify" viewBox="0 0 375 374.999991" height="500" preserveAspectRatio="xMidYMid meet" version="1.2"><defs><clipPath id="8c26acd7ed"><path d="M 119 110.671875 L 170 110.671875 L 170 161 L 119 161 Z M 119 110.671875 "/></clipPath><clipPath id="d340ef093a"><path d="M 205 110.671875 L 256 110.671875 L 256 161 L 205 161 Z M 205 110.671875 "/></clipPath><clipPath id="c0a9e1202d"><path d="M 197 164 L 265.753906 164 L 265.753906 235 L 197 235 Z M 197 164 "/></clipPath><clipPath id="58b6aad6b4"><path d="M 109.003906 164 L 178 164 L 178 235 L 109.003906 235 Z M 109.003906 164 "/></clipPath><clipPath id="ee9132fb29"><path d="M 152 194 L 223 194 L 223 264.421875 L 152 264.421875 Z M 152 194 "/></clipPath></defs><g id="895c9a68d6"><g clip-rule="nonzero" clip-path="url(#8c26acd7ed)"><path style=" stroke:none;fill-rule:nonzero;fill:#f35526;fill-opacity:1;" d="M 144.019531 160.703125 C 150.882812 160.703125 157.269531 157.976562 162.03125 153.03125 C 163.246094 150.617188 164.789062 148.398438 166.609375 146.4375 C 168.21875 143.066406 169.035156 139.453125 169.035156 135.691406 C 169.035156 121.898438 157.8125 110.675781 144.019531 110.675781 C 130.230469 110.675781 119.007812 121.898438 119.007812 135.691406 C 119.007812 149.480469 130.230469 160.703125 144.019531 160.703125 Z M 144.019531 160.703125 "/></g><path style=" stroke:none;fill-rule:nonzero;fill:#f35526;fill-opacity:1;" d="M 187.378906 190.71875 C 201.171875 190.71875 212.390625 179.5 212.390625 165.707031 C 212.390625 151.914062 201.171875 140.691406 187.378906 140.691406 C 173.585938 140.691406 162.363281 151.914062 162.363281 165.707031 C 162.363281 179.5 173.585938 190.71875 187.378906 190.71875 Z M 187.378906 190.71875 "/><g clip-rule="nonzero" clip-path="url(#d340ef093a)"><path style=" stroke:none;fill-rule:nonzero;fill:#f35526;fill-opacity:1;" d="M 212.722656 153.03125 C 217.484375 157.976562 223.871094 160.703125 230.734375 160.703125 C 244.527344 160.703125 255.746094 149.480469 255.746094 135.691406 C 255.746094 121.898438 244.527344 110.675781 230.734375 110.675781 C 216.941406 110.675781 205.722656 121.898438 205.722656 135.691406 C 205.722656 139.453125 206.539062 143.066406 208.144531 146.4375 C 209.964844 148.398438 211.511719 150.617188 212.722656 153.03125 Z M 212.722656 153.03125 "/></g><g clip-rule="nonzero" clip-path="url(#c0a9e1202d)"><path style=" stroke:none;fill-rule:nonzero;fill:#f35526;fill-opacity:1;" d="M 230.734375 164.039062 C 225.445312 164.039062 220.382812 165.179688 215.667969 167.4375 C 214.984375 178.695312 207.707031 188.195312 197.652344 192.117188 C 213.828125 196.621094 225.730469 211.484375 225.730469 229.074219 L 225.730469 234.074219 L 265.753906 234.074219 L 265.753906 199.058594 C 265.753906 179.746094 250.042969 164.039062 230.734375 164.039062 Z M 230.734375 164.039062 "/></g><g clip-rule="nonzero" clip-path="url(#58b6aad6b4)"><path style=" stroke:none;fill-rule:nonzero;fill:#f35526;fill-opacity:1;" d="M 177.101562 192.117188 C 167.050781 188.195312 159.769531 178.695312 159.085938 167.4375 C 154.371094 165.179688 149.308594 164.039062 144.019531 164.039062 C 124.710938 164.039062 109.003906 179.746094 109.003906 199.058594 L 109.003906 234.074219 L 149.023438 234.074219 L 149.023438 229.074219 C 149.023438 211.484375 160.929688 196.621094 177.101562 192.117188 Z M 177.101562 192.117188 "/></g><g clip-rule="nonzero" clip-path="url(#ee9132fb29)"><path style=" stroke:none;fill-rule:nonzero;fill:#f35526;fill-opacity:1;" d="M 187.378906 194.054688 C 168.070312 194.054688 152.359375 209.765625 152.359375 229.074219 L 152.359375 264.089844 L 222.394531 264.089844 L 222.394531 229.074219 C 222.394531 209.765625 206.6875 194.054688 187.378906 194.054688 Z M 187.378906 194.054688 "/></g></g></svg>