<svg xmlns="http://www.w3.org/2000/svg" xmlns:xlink="http://www.w3.org/1999/xlink" width="500" zoomAndPan="magnify" viewBox="0 0 375 374.999991" height="500" preserveAspectRatio="xMidYMid meet" version="1.2"><defs><clipPath id="edaaeaef67"><path d="M 104.222656 104.222656 L 270.722656 104.222656 L 270.722656 270.722656 L 104.222656 270.722656 Z M 104.222656 104.222656 "/></clipPath></defs><g id="0fb5d62531"><g clip-rule="nonzero" clip-path="url(#edaaeaef67)"><path style=" stroke:none;fill-rule:nonzero;fill:#f35526;fill-opacity:1;" d="M 187.472656 221.804688 C 168.507812 221.804688 153.136719 206.433594 153.136719 187.472656 C 153.136719 168.507812 168.507812 153.136719 187.472656 153.136719 C 206.433594 153.136719 221.804688 168.507812 221.804688 187.472656 C 221.804688 206.433594 206.433594 221.804688 187.472656 221.804688 Z M 266.226562 171.417969 L 250.855469 169.597656 C 249.464844 164.660156 247.496094 159.851562 244.933594 155.285156 L 254.511719 143.132812 C 256.109375 141.105469 255.9375 138.203125 254.113281 136.378906 L 238.5625 120.828125 C 236.738281 119.003906 233.835938 118.832031 231.808594 120.429688 L 219.65625 130.007812 C 215.089844 127.445312 210.28125 125.476562 205.34375 124.089844 L 203.523438 108.714844 C 203.21875 106.152344 201.046875 104.222656 198.464844 104.222656 L 176.476562 104.222656 C 173.894531 104.222656 171.722656 106.152344 171.417969 108.714844 L 169.597656 124.089844 C 164.660156 125.476562 159.851562 127.445312 155.285156 130.007812 L 143.132812 120.429688 C 141.105469 118.832031 138.203125 119.003906 136.378906 120.828125 L 120.828125 136.378906 C 119.003906 138.203125 118.832031 141.105469 120.429688 143.132812 L 130.007812 155.285156 C 127.445312 159.851562 125.476562 164.660156 124.089844 169.597656 L 108.714844 171.417969 C 106.152344 171.722656 104.222656 173.894531 104.222656 176.476562 L 104.222656 198.464844 C 104.222656 201.046875 106.152344 203.21875 108.714844 203.523438 L 124.089844 205.34375 C 125.476562 210.28125 127.445312 215.089844 130.007812 219.65625 L 120.429688 231.808594 C 118.832031 233.835938 119.003906 236.738281 120.828125 238.5625 L 136.378906 254.113281 C 138.203125 255.9375 141.105469 256.109375 143.132812 254.511719 L 155.285156 244.933594 C 159.851562 247.496094 164.660156 249.464844 169.597656 250.855469 L 171.417969 266.226562 C 171.722656 268.789062 173.894531 270.722656 176.476562 270.722656 L 198.101562 270.722656 C 200.636719 270.722656 202.785156 268.855469 203.144531 266.34375 L 205.34375 250.855469 C 210.28125 249.464844 215.089844 247.496094 219.65625 244.933594 L 231.808594 254.511719 C 233.835938 256.109375 236.738281 255.9375 238.5625 254.113281 L 254.113281 238.5625 C 255.9375 236.738281 256.109375 233.835938 254.511719 231.808594 L 244.933594 219.65625 C 247.496094 215.089844 249.464844 210.28125 250.855469 205.34375 L 266.226562 203.523438 C 268.789062 203.21875 270.722656 201.046875 270.722656 198.464844 L 270.722656 176.476562 C 270.722656 173.894531 268.789062 171.722656 266.226562 171.417969 "/></g></g></svg>