<svg xmlns="http://www.w3.org/2000/svg" xmlns:xlink="http://www.w3.org/1999/xlink" width="500" zoomAndPan="magnify" viewBox="0 0 375 374.999991" height="500" preserveAspectRatio="xMidYMid meet" version="1.2"><defs><clipPath id="f03b987721"><path d="M 87 117 L 287.867188 117 L 287.867188 237 L 87 237 Z M 87 117 "/></clipPath></defs><g id="e4a35f134a"><path style=" stroke:none;fill-rule:nonzero;fill:#f35526;fill-opacity:1;" d="M 268.507812 164.566406 C 223.417969 113.519531 151.101562 113.519531 106.011719 164.566406 L 95.800781 176.902344 L 106.4375 189.238281 C 151.101562 240.710938 223.84375 240.710938 268.507812 189.238281 L 279.140625 176.902344 Z M 268.507812 164.566406 "/><g clip-rule="nonzero" clip-path="url(#f03b987721)"><path style=" stroke:none;fill-rule:nonzero;fill:#f35526;fill-opacity:1;" d="M 187.257812 236.03125 C 154.078125 236.03125 123.027344 221.144531 100.054688 194.769531 L 89.421875 182.433594 C 86.867188 179.457031 86.867188 174.777344 89.421875 171.375 L 100.054688 159.039062 C 123.453125 132.238281 154.503906 117.773438 187.257812 117.773438 C 220.4375 117.773438 251.492188 132.664062 274.464844 159.039062 L 285.097656 171.375 C 287.648438 174.351562 287.648438 179.03125 285.097656 182.433594 L 274.464844 194.769531 C 251.492188 221.144531 220.4375 236.03125 187.257812 236.03125 Z M 106.863281 176.902344 L 112.816406 183.710938 C 132.386719 206.679688 159.183594 219.441406 187.257812 219.441406 C 215.335938 219.441406 242.132812 206.679688 262.125 183.710938 L 268.082031 176.902344 L 262.125 170.097656 C 242.132812 147.125 215.335938 134.363281 187.257812 134.363281 C 159.183594 134.363281 132.386719 147.125 112.390625 170.097656 Z M 106.863281 176.902344 "/></g><path style=" stroke:none;fill-rule:nonzero;fill:#f35526;fill-opacity:1;" d="M 221.714844 176.902344 C 221.714844 178.03125 221.660156 179.15625 221.550781 180.28125 C 221.4375 181.402344 221.273438 182.519531 221.054688 183.625 C 220.832031 184.730469 220.558594 185.824219 220.230469 186.90625 C 219.902344 187.984375 219.523438 189.046875 219.09375 190.089844 C 218.660156 191.132812 218.179688 192.152344 217.648438 193.144531 C 217.113281 194.140625 216.535156 195.109375 215.910156 196.046875 C 215.28125 196.984375 214.609375 197.890625 213.894531 198.761719 C 213.179688 199.632812 212.421875 200.46875 211.625 201.265625 C 210.824219 202.066406 209.992188 202.820312 209.117188 203.539062 C 208.246094 204.253906 207.339844 204.925781 206.402344 205.550781 C 205.464844 206.179688 204.496094 206.757812 203.5 207.289062 C 202.507812 207.824219 201.488281 208.304688 200.445312 208.738281 C 199.402344 209.167969 198.339844 209.546875 197.261719 209.875 C 196.179688 210.203125 195.089844 210.476562 193.980469 210.695312 C 192.875 210.917969 191.757812 211.082031 190.636719 211.195312 C 189.511719 211.304688 188.386719 211.359375 187.257812 211.359375 C 186.132812 211.359375 185.003906 211.304688 183.882812 211.195312 C 182.757812 211.082031 181.644531 210.917969 180.539062 210.695312 C 179.429688 210.476562 178.335938 210.203125 177.257812 209.875 C 176.175781 209.546875 175.117188 209.167969 174.074219 208.738281 C 173.03125 208.304688 172.011719 207.824219 171.015625 207.289062 C 170.023438 206.757812 169.054688 206.179688 168.117188 205.550781 C 167.179688 204.925781 166.273438 204.253906 165.402344 203.539062 C 164.527344 202.820312 163.691406 202.066406 162.894531 201.265625 C 162.097656 200.46875 161.339844 199.632812 160.625 198.761719 C 159.910156 197.890625 159.238281 196.984375 158.609375 196.046875 C 157.984375 195.109375 157.402344 194.140625 156.871094 193.144531 C 156.339844 192.152344 155.859375 191.132812 155.425781 190.089844 C 154.996094 189.046875 154.613281 187.984375 154.285156 186.90625 C 153.960938 185.824219 153.6875 184.730469 153.464844 183.625 C 153.246094 182.519531 153.078125 181.402344 152.96875 180.28125 C 152.859375 179.15625 152.804688 178.03125 152.804688 176.902344 C 152.804688 175.773438 152.859375 174.648438 152.96875 173.527344 C 153.078125 172.402344 153.246094 171.289062 153.464844 170.179688 C 153.6875 169.074219 153.960938 167.980469 154.285156 166.902344 C 154.613281 165.820312 154.996094 164.761719 155.425781 163.71875 C 155.859375 162.675781 156.339844 161.65625 156.871094 160.660156 C 157.402344 159.664062 157.984375 158.699219 158.609375 157.761719 C 159.238281 156.820312 159.910156 155.917969 160.625 155.042969 C 161.339844 154.171875 162.097656 153.335938 162.894531 152.539062 C 163.691406 151.742188 164.527344 150.984375 165.402344 150.269531 C 166.273438 149.550781 167.179688 148.882812 168.117188 148.253906 C 169.054688 147.628906 170.023438 147.046875 171.015625 146.515625 C 172.011719 145.984375 173.03125 145.5 174.074219 145.070312 C 175.117188 144.636719 176.175781 144.257812 177.257812 143.929688 C 178.335938 143.601562 179.429688 143.328125 180.539062 143.109375 C 181.644531 142.890625 182.757812 142.722656 183.882812 142.613281 C 185.003906 142.503906 186.132812 142.445312 187.257812 142.445312 C 188.386719 142.445312 189.511719 142.503906 190.636719 142.613281 C 191.757812 142.722656 192.875 142.890625 193.980469 143.109375 C 195.089844 143.328125 196.179688 143.601562 197.261719 143.929688 C 198.339844 144.257812 199.402344 144.636719 200.445312 145.070312 C 201.488281 145.5 202.507812 145.984375 203.5 146.515625 C 204.496094 147.046875 205.464844 147.628906 206.402344 148.253906 C 207.339844 148.882812 208.246094 149.550781 209.117188 150.269531 C 209.992188 150.984375 210.824219 151.742188 211.625 152.539062 C 212.421875 153.335938 213.179688 154.171875 213.894531 155.042969 C 214.609375 155.917969 215.28125 156.820312 215.910156 157.761719 C 216.535156 158.699219 217.113281 159.664062 217.648438 160.660156 C 218.179688 161.65625 218.660156 162.675781 219.09375 163.71875 C 219.523438 164.761719 219.902344 165.820312 220.230469 166.902344 C 220.558594 167.980469 220.832031 169.074219 221.054688 170.179688 C 221.273438 171.289062 221.4375 172.402344 221.550781 173.527344 C 221.660156 174.648438 221.714844 175.773438 221.714844 176.902344 Z M 221.714844 176.902344 "/><path style=" stroke:none;fill-rule:nonzero;fill:#ffffff;fill-opacity:1;" d="M 187.257812 219.441406 C 163.863281 219.441406 144.722656 200.300781 144.722656 176.902344 C 144.722656 153.507812 163.863281 134.363281 187.257812 134.363281 C 210.65625 134.363281 229.796875 153.507812 229.796875 176.902344 C 229.796875 200.300781 210.65625 219.441406 187.257812 219.441406 Z M 187.257812 150.953125 C 172.796875 150.953125 161.3125 162.441406 161.3125 176.902344 C 161.3125 191.367188 172.796875 202.851562 187.257812 202.851562 C 201.722656 202.851562 213.207031 191.367188 213.207031 176.902344 C 213.207031 162.441406 201.722656 150.953125 187.257812 150.953125 Z M 187.257812 150.953125 "/></g></svg>