<svg xmlns="http://www.w3.org/2000/svg" xmlns:xlink="http://www.w3.org/1999/xlink" width="500" zoomAndPan="magnify" viewBox="0 0 375 374.999991" height="500" preserveAspectRatio="xMidYMid meet" version="1.2"><defs><clipPath id="e4a9b548dc"><path d="M 139.445312 92.136719 L 235.445312 92.136719 L 235.445312 250.386719 L 139.445312 250.386719 Z M 139.445312 92.136719 "/></clipPath></defs><g id="40a7ebd6c7"><g clip-rule="nonzero" clip-path="url(#e4a9b548dc)"><path style=" stroke:none;fill-rule:nonzero;fill:#f35526;fill-opacity:1;" d="M 142.660156 182.515625 L 181.925781 182.515625 C 182.773438 182.515625 183.585938 182.898438 184.113281 183.558594 C 184.652344 184.21875 184.859375 185.085938 184.671875 185.921875 L 171.101562 249.332031 C 171.066406 249.472656 171.003906 249.78125 171.421875 249.96875 C 171.847656 250.167969 172.023438 249.914062 172.113281 249.792969 L 234.796875 164.667969 C 235.46875 163.753906 235.566406 162.613281 235.0625 161.613281 C 234.542969 160.601562 233.566406 160.007812 232.445312 160.007812 L 193.179688 160.007812 C 192.332031 160.007812 191.519531 159.621094 190.992188 158.964844 C 190.453125 158.304688 190.246094 157.4375 190.433594 156.601562 L 204.003906 93.191406 C 204.035156 93.046875 204.101562 92.738281 203.683594 92.554688 C 203.574219 92.507812 203.488281 92.488281 203.410156 92.488281 C 203.179688 92.488281 203.058594 92.640625 202.992188 92.730469 L 140.308594 177.855469 C 139.636719 178.765625 139.539062 179.910156 140.042969 180.910156 C 140.5625 181.921875 141.539062 182.515625 142.660156 182.515625 "/></g></g></svg>